# xmcd CD database file
#
# Track frame offsets:
#	150
#	21593
#	35329
#	62720
#	79887
#	99177
#	118154
#	143470
#	164800
#	186429
#	205982
#	228788
#	248175
#	263243
#	274991
#	308933
#	321314
#	342611
#
# Disc length: 4774 seconds
#
# Revision: 0
# Processed by: cddbd v1.5.2PL0 Copyright (c) Steve Scherf et al.
# Submitted via: CDex 1.51
#
DISCID=1212a412
DTITLE=Various Artist - Sundance - Stunt Records Compilation Vol. 17
DYEAR=2009
DGENRE=Jazz
TTITLE0=Diego Figueiredo, Rodolfo Stroeteer, Robertinho Silva - Berimbau
TTITLE1=Caroline Henderson - Unchained Melody
TTITLE2=Jan Harbech - Petit Fleur
TTITLE3=String Swing - Lady With The Breaid
TTITLE4=Ben Webster w. Arnvid Meyer's Orchestra - Nancy with a Laughing Face
TTITLE5=Jens Winther - Strange Beauty
TTITLE6=Paul Banks - Grace
TTITLE7=Soren Kristiansen - Everything That Grows is Covered in Snow
TTITLE8=Kenny Werne, Jens Sondergaard - Darn That Dream
TTITLE9=Kaya Brüel - My Funny Valentine
TTITLE10=Jakob Dinesen - Night Of The Strooch
TTITLE11=Ole Matthiessen - Requiem
TTITLE12=Anders Christensen, Lasse M. Jensen Habibti Sham's
TTITLE13=Stefan Pasborg's Odessa 5 - Free
TTITLE14=Jesper Thilo, Dennis Mackrel w. Klüvers Big Band - Lester Leaps In
TTITLE15=Mads La Cour - Ellen
TTITLE16=Jonas Westergaard - Levitated
TTITLE17=Marian Bitran, Makiko Hirabayashi Quintet - Often I Am Happy
EXTD=YEAR: 2009
EXTT0=
EXTT1=
EXTT2=
EXTT3=
EXTT4=
EXTT5=
EXTT6=
EXTT7=
EXTT8=
EXTT9=
EXTT10=
EXTT11=
EXTT12=
EXTT13=
EXTT14=
EXTT15=
EXTT16=
EXTT17=
PLAYORDER=
